<svg xmlns="http://www.w3.org/2000/svg" xmlns:xlink="http://www.w3.org/1999/xlink" width="500" zoomAndPan="magnify" viewBox="0 0 375 374.999991" height="500" preserveAspectRatio="xMidYMid meet" version="1.0"><defs><clipPath id="d1ed14e402"><path d="M 49.808594 49.808594 L 325.191406 49.808594 L 325.191406 325.191406 L 49.808594 325.191406 Z M 49.808594 49.808594 " clip-rule="nonzero"/></clipPath><clipPath id="f4370e9b1e"><path d="M 187.5 49.808594 C 111.457031 49.808594 49.808594 111.457031 49.808594 187.5 C 49.808594 263.542969 111.457031 325.191406 187.5 325.191406 C 263.542969 325.191406 325.191406 263.542969 325.191406 187.5 C 325.191406 111.457031 263.542969 49.808594 187.5 49.808594 Z M 187.5 49.808594 " clip-rule="nonzero"/></clipPath><clipPath id="06c45e8b51"><path d="M 91.234375 126.414062 L 283.984375 126.414062 L 283.984375 248.664062 L 91.234375 248.664062 Z M 91.234375 126.414062 " clip-rule="nonzero"/></clipPath></defs><g clip-path="url(#d1ed14e402)"><g clip-path="url(#f4370e9b1e)"><path fill="#28a745" d="M 49.808594 49.808594 L 325.191406 49.808594 L 325.191406 325.191406 L 49.808594 325.191406 Z M 49.808594 49.808594 " fill-opacity="1" fill-rule="nonzero"/></g></g><g clip-path="url(#06c45e8b51)"><path fill="#231f20" d="M 280.015625 158.398438 C 277.007812 155.890625 272.691406 154.890625 268.21875 155.699219 C 266.292969 156.046875 261.9375 156.816406 257.851562 157.550781 L 257.851562 156.894531 C 257.851562 156.894531 257.851562 156.855469 257.851562 156.855469 C 257.851562 156.855469 257.851562 156.855469 257.851562 156.816406 C 257.851562 155.546875 257.660156 154.3125 257.3125 153.082031 C 257.273438 152.886719 257.195312 152.695312 257.160156 152.539062 C 257.121094 152.464844 257.121094 152.386719 257.082031 152.269531 C 257.042969 152.15625 257.003906 152.078125 256.964844 151.964844 C 256.886719 151.808594 256.851562 151.617188 256.773438 151.460938 C 256.773438 151.460938 256.773438 151.460938 256.773438 151.421875 C 254.265625 145.296875 247.484375 139.675781 237.117188 135.242188 C 234.378906 134.089844 231.488281 133.007812 228.40625 132.085938 C 228.328125 132.046875 228.214844 132.046875 228.136719 132.007812 C 227.867188 131.929688 227.636719 131.855469 227.363281 131.777344 C 227.058594 131.699219 226.785156 131.621094 226.480469 131.507812 C 226.402344 131.507812 226.363281 131.46875 226.285156 131.46875 C 215.1875 128.269531 201.886719 126.421875 187.589844 126.421875 C 173.289062 126.421875 159.992188 128.269531 148.894531 131.46875 C 148.816406 131.46875 148.777344 131.507812 148.699219 131.507812 C 148.390625 131.585938 148.121094 131.660156 147.8125 131.777344 C 147.542969 131.855469 147.273438 131.929688 147.042969 132.007812 C 146.964844 132.046875 146.890625 132.046875 146.773438 132.085938 C 143.691406 133.046875 140.800781 134.089844 138.0625 135.242188 C 127.695312 139.675781 120.910156 145.296875 118.40625 151.421875 C 118.40625 151.421875 118.40625 151.421875 118.40625 151.460938 C 118.328125 151.617188 118.25 151.808594 118.214844 151.964844 C 118.175781 152.078125 118.136719 152.15625 118.097656 152.269531 C 118.058594 152.347656 118.058594 152.425781 118.019531 152.539062 C 117.945312 152.734375 117.90625 152.886719 117.867188 153.082031 C 117.519531 154.3125 117.328125 155.546875 117.328125 156.816406 C 117.328125 156.816406 117.328125 156.816406 117.328125 156.855469 C 117.328125 156.855469 117.328125 156.855469 117.328125 156.894531 L 117.328125 157.550781 C 113.242188 156.855469 108.925781 156.085938 106.957031 155.699219 C 102.449219 154.890625 98.171875 155.855469 95.164062 158.398438 C 92.621094 160.515625 91.234375 163.558594 91.234375 166.949219 C 91.234375 174.421875 98.054688 181.703125 106.457031 183.207031 L 109.964844 183.820312 C 112.125 184.207031 114.820312 184.667969 117.328125 185.132812 L 117.328125 207.707031 C 117.328125 223 126.460938 248.65625 187.589844 248.65625 C 248.71875 248.65625 257.851562 223 257.851562 207.707031 L 257.851562 185.132812 C 260.394531 184.667969 263.09375 184.207031 265.289062 183.820312 L 268.757812 183.207031 C 277.160156 181.703125 283.984375 174.421875 283.984375 166.949219 C 283.945312 163.558594 282.558594 160.515625 280.015625 158.398438 Z M 110.464844 181.011719 L 106.957031 180.355469 C 99.867188 179.082031 94.125 173.074219 94.125 166.949219 C 94.125 164.40625 95.125 162.210938 97.015625 160.59375 C 99.367188 158.628906 102.796875 157.894531 106.457031 158.550781 C 108.460938 158.898438 113.085938 159.746094 117.328125 160.476562 L 117.328125 182.203125 C 114.976562 181.78125 112.507812 181.355469 110.464844 181.011719 Z M 268.21875 180.355469 L 264.75 180.972656 C 262.707031 181.316406 260.242188 181.78125 257.8125 182.203125 L 257.8125 160.476562 C 262.054688 159.707031 266.679688 158.898438 268.683594 158.550781 C 272.34375 157.894531 275.773438 158.628906 278.125 160.59375 C 280.015625 162.171875 281.015625 164.367188 281.015625 166.949219 C 281.054688 173.074219 275.3125 179.121094 268.21875 180.355469 Z M 268.21875 180.355469 " fill-opacity="1" fill-rule="nonzero"/></g><path fill="#e88446" d="M 250.21875 156.046875 C 250.21875 156.085938 250.21875 156.164062 250.21875 156.199219 C 248.332031 154.042969 245.480469 152.617188 242.320312 151.230469 C 240.855469 150.613281 240.160156 149.535156 239.390625 148.304688 C 238.925781 147.570312 238.464844 146.839844 237.769531 146.109375 C 236 144.179688 233.996094 144.144531 231.875 144.105469 C 231.488281 144.105469 231.105469 144.105469 230.679688 144.066406 C 228.828125 143.988281 227.132812 143.21875 225.324219 142.449219 C 223.433594 141.601562 221.429688 140.714844 219.308594 140.714844 C 219.195312 140.714844 219.078125 140.714844 218.960938 140.714844 C 218.421875 140.753906 217.921875 140.792969 217.421875 140.828125 C 216.726562 140.90625 216.070312 140.984375 215.457031 140.984375 C 215.222656 140.984375 215.03125 140.984375 214.800781 140.945312 C 214.375 140.136719 213.527344 139.597656 212.566406 139.597656 C 212.371094 139.597656 212.21875 139.636719 212.023438 139.636719 C 210.945312 138.59375 209.40625 138.015625 208.324219 137.632812 C 207.59375 137.402344 206.898438 137.285156 206.167969 137.285156 C 205.050781 137.285156 204.046875 137.554688 202.96875 137.824219 C 202.234375 138.015625 201.425781 138.25 200.617188 138.324219 C 200.308594 138.363281 200 138.363281 199.691406 138.363281 C 197.917969 138.363281 196.339844 137.824219 194.605469 137.246094 C 192.984375 136.707031 191.289062 136.167969 189.476562 136.089844 C 187.472656 136.015625 185.585938 136.824219 183.773438 137.632812 C 182.15625 138.324219 180.652344 138.980469 179.070312 139.058594 C 176.835938 139.171875 174.371094 138.710938 172.519531 138.324219 C 169.089844 137.554688 165.929688 137.476562 163.308594 138.09375 C 162.769531 138.210938 162.191406 138.363281 161.613281 138.59375 C 159.761719 138.480469 158.683594 139.710938 158.375 141.023438 C 157.875 141.601562 157.488281 141.910156 156.5625 142.023438 C 156.253906 142.0625 155.945312 142.0625 155.597656 142.0625 C 154.828125 142.0625 154.058594 141.984375 153.25 141.871094 C 152.4375 141.792969 151.628906 141.675781 150.78125 141.675781 C 150.085938 141.675781 149.433594 141.753906 148.855469 141.871094 C 147.121094 142.253906 146.003906 143.371094 144.921875 144.449219 C 144.613281 144.757812 144.34375 145.066406 144 145.335938 C 142.378906 146.878906 141.070312 147.148438 138.792969 147.1875 C 135.597656 147.226562 134.59375 149.074219 133.628906 150.882812 C 133.167969 151.730469 132.707031 152.617188 131.972656 153.386719 C 131.164062 154.273438 130.199219 155.046875 129.238281 155.738281 C 127.808594 156.816406 126.382812 157.933594 125.574219 159.550781 C 125.113281 158.359375 124.882812 157.085938 124.882812 155.855469 C 124.882812 141.984375 152.976562 130.738281 187.511719 130.738281 C 222.125 130.929688 250.21875 142.179688 250.21875 156.046875 Z M 177.261719 161.824219 C 175.988281 160.863281 174.792969 159.515625 175.757812 158.011719 C 175.757812 157.933594 175.796875 157.855469 175.871094 157.78125 C 177.722656 155.546875 180.535156 154.503906 183.386719 155.121094 C 184.699219 155.390625 185.816406 156.046875 186.855469 156.777344 C 187.589844 157.316406 188.320312 157.894531 189.015625 158.472656 C 190.054688 157.242188 189.902344 155.621094 189.746094 154.851562 C 189.285156 152.578125 187.398438 150.152344 185.085938 150.152344 C 184.890625 150.152344 184.699219 150.152344 184.542969 150.191406 C 174.292969 151.925781 163.691406 156.007812 158.257812 158.28125 C 158.21875 158.28125 158.179688 158.320312 158.144531 158.320312 C 159.105469 158.742188 159.839844 159.550781 160.1875 160.59375 C 160.6875 162.019531 160.570312 163.25 159.839844 164.136719 C 159.878906 164.136719 159.878906 164.136719 159.917969 164.136719 C 164.65625 163.984375 171.671875 163.058594 177.570312 161.980469 C 177.453125 161.980469 177.335938 161.902344 177.261719 161.824219 Z M 157.601562 159.398438 C 157.21875 159.242188 156.949219 159.242188 156.753906 159.320312 C 156.0625 160.089844 155.867188 161.015625 156.023438 161.785156 C 156.214844 162.671875 156.871094 163.636719 158.257812 164.019531 C 158.683594 163.789062 159.800781 163.097656 159.066406 161.015625 C 158.722656 159.9375 157.910156 159.515625 157.601562 159.398438 Z M 175.871094 176.425781 C 175.949219 176.308594 176.066406 176.234375 176.179688 176.195312 C 176.683594 175.886719 177.296875 175.617188 177.992188 175.5 C 181.960938 174.730469 188.785156 173.535156 196.144531 172.996094 C 196.222656 172.457031 196.183594 171.996094 196.183594 171.6875 C 195.953125 169.261719 194.371094 166.71875 192.023438 166.640625 C 191.367188 166.640625 190.710938 166.601562 190.015625 166.601562 C 180.226562 166.601562 169.898438 168.335938 164.617188 169.375 C 164.542969 169.375 164.503906 169.414062 164.464844 169.414062 C 165.3125 169.992188 165.890625 170.957031 166.082031 172.074219 C 166.3125 173.535156 165.929688 174.691406 165.082031 175.460938 C 167.894531 175.925781 171.710938 176.273438 175.679688 176.503906 C 175.757812 176.503906 175.796875 176.464844 175.871094 176.425781 Z M 163.808594 170.414062 C 163.460938 170.183594 163.113281 170.144531 162.960938 170.183594 C 162.152344 170.839844 161.765625 171.726562 161.804688 172.535156 C 161.804688 173.421875 162.34375 174.460938 163.578125 175.078125 C 164.695312 174.691406 165.15625 173.765625 164.964844 172.304688 C 164.773438 171.148438 164.117188 170.609375 163.808594 170.414062 Z M 205.589844 173.882812 C 204.933594 173.882812 204.277344 173.84375 203.585938 173.84375 C 193.792969 173.84375 183.464844 175.578125 178.183594 176.617188 C 178.148438 176.617188 178.070312 176.65625 178.03125 176.65625 C 178.839844 177.234375 179.417969 178.160156 179.574219 179.277344 C 179.648438 179.894531 179.648438 180.433594 179.535156 180.933594 C 182.15625 181.046875 184.8125 181.125 187.550781 181.125 C 195.296875 181.125 202.773438 180.546875 209.710938 179.507812 C 209.710938 179.238281 209.710938 179.046875 209.675781 178.890625 C 209.519531 176.503906 207.941406 173.921875 205.589844 173.882812 Z M 177.335938 177.582031 C 177.066406 177.390625 176.796875 177.3125 176.605469 177.3125 C 175.71875 177.929688 175.332031 178.851562 175.332031 179.660156 C 175.332031 180.007812 175.410156 180.355469 175.5625 180.664062 C 176.488281 180.742188 177.453125 180.816406 178.417969 180.855469 C 178.53125 180.46875 178.570312 179.96875 178.453125 179.429688 C 178.300781 178.3125 177.605469 177.734375 177.335938 177.582031 Z M 177.335938 177.582031 " fill-opacity="1" fill-rule="nonzero"/><path fill="#afd85e" d="M 151.820312 168.027344 C 152.398438 168.683594 157.296875 174.578125 160.765625 178.738281 C 155.136719 177.660156 149.933594 176.234375 145.386719 174.578125 C 143.304688 172.148438 141.761719 169.800781 142.070312 169.183594 C 142.496094 168.257812 145.117188 167.605469 148.277344 167.605469 C 150.511719 167.566406 151.628906 167.910156 151.820312 168.027344 Z M 228.984375 150.269531 C 228.753906 149.34375 226.671875 147.957031 224.589844 147.957031 C 223.894531 147.957031 223.355469 148.109375 222.894531 148.417969 C 222.625 149.152344 223.203125 153.003906 223.933594 156.238281 C 224.011719 156.507812 223.820312 156.816406 223.550781 156.894531 C 223.28125 156.972656 222.972656 156.855469 222.855469 156.585938 C 221.3125 153.351562 219.269531 149.691406 218.617188 149.34375 C 218.5 149.304688 218.382812 149.265625 218.230469 149.265625 C 216.6875 149.265625 213.796875 151.347656 213.066406 152.964844 C 212.757812 153.621094 212.988281 153.890625 213.066406 153.964844 C 215.917969 157.203125 220.773438 163.984375 220.96875 168.875 C 221.082031 171.765625 219.886719 175.269531 219 177.773438 C 221.929688 177.082031 224.707031 176.308594 227.328125 175.460938 C 229.871094 165.523438 230.449219 156.664062 228.984375 150.269531 Z M 228.984375 150.269531 " fill-opacity="1" fill-rule="nonzero"/><path fill="#ebc692" d="M 230.832031 163.519531 C 230.757812 163.480469 230.71875 163.480469 230.640625 163.441406 C 230.796875 161.710938 230.910156 160.054688 230.910156 158.472656 C 231.21875 158.320312 231.527344 158.164062 231.875 158.011719 C 232.453125 157.78125 233.144531 157.550781 233.722656 157.625 C 233.839844 157.625 233.957031 157.664062 233.996094 157.742188 C 233.996094 157.78125 233.996094 157.78125 233.996094 157.820312 C 234.109375 157.972656 234.148438 158.164062 234.226562 158.398438 C 234.378906 158.9375 234.496094 159.515625 234.609375 160.089844 C 234.070312 160.476562 233.53125 160.902344 233.070312 161.324219 C 232.296875 161.980469 231.566406 162.75 230.832031 163.519531 Z M 238.65625 159.320312 C 237.617188 159.4375 236.578125 160.015625 235.730469 160.59375 C 234.648438 161.285156 233.609375 162.132812 232.683594 163.058594 C 231.835938 163.828125 231.105469 164.636719 230.449219 165.523438 C 230.292969 166.640625 230.140625 167.757812 229.949219 168.875 C 230.410156 169.183594 230.988281 169.375 231.375 169.53125 C 232.914062 170.03125 234.609375 170.109375 236.152344 169.761719 C 239.199219 169.144531 242.164062 166.71875 241.972656 163.40625 C 241.820312 161.710938 240.738281 159.050781 238.65625 159.320312 Z M 138.410156 156.738281 C 138.910156 156.972656 139.566406 156.972656 140.066406 157.085938 C 140.222656 157.125 140.335938 157.164062 140.492188 157.164062 C 141.105469 156.507812 141.761719 155.890625 142.457031 155.277344 C 142.957031 154.851562 143.457031 154.429688 144 154.042969 C 143.882812 153.503906 143.765625 152.964844 143.613281 152.425781 C 143.574219 152.195312 143.496094 152.039062 143.382812 151.847656 C 143.382812 151.808594 143.382812 151.808594 143.382812 151.769531 C 143.304688 151.730469 143.226562 151.65625 143.113281 151.65625 C 142.535156 151.617188 141.839844 151.808594 141.261719 152.039062 C 140.105469 152.503906 139.179688 153.003906 138.488281 154.003906 C 138.140625 154.46875 137.792969 155.082031 137.792969 155.660156 C 137.792969 155.890625 137.832031 156.125 138.023438 156.277344 C 138.0625 156.394531 138.179688 156.507812 138.292969 156.546875 C 138.140625 156.585938 138.410156 156.738281 138.410156 156.738281 Z M 147.96875 153.386719 C 146.925781 153.503906 145.886719 154.082031 145.039062 154.660156 C 143.960938 155.351562 142.917969 156.199219 141.992188 157.125 C 141.070312 157.972656 140.257812 158.859375 139.527344 159.898438 C 139.257812 160.285156 139.027344 160.707031 138.792969 161.09375 C 138.679688 161.324219 138.5625 161.671875 138.5625 161.824219 C 138.5625 161.902344 138.5625 161.980469 138.523438 162.054688 C 138.679688 162.828125 139.988281 163.367188 140.722656 163.558594 C 142.261719 164.019531 143.960938 164.136719 145.5 163.789062 C 148.546875 163.171875 151.515625 160.746094 151.320312 157.433594 C 151.128906 155.738281 150.050781 153.082031 147.96875 153.386719 Z M 188.320312 159.398438 C 186.78125 158.011719 184.96875 156.585938 182.847656 156.164062 C 180.496094 155.699219 178.378906 156.625 176.875 158.359375 C 176.875 158.359375 176.875 158.398438 176.835938 158.398438 C 176.21875 159.242188 176.757812 159.976562 177.605469 160.667969 C 177.914062 160.207031 178.339844 159.820312 178.800781 159.550781 C 180.074219 158.9375 181.617188 159.398438 182.65625 160.246094 C 182.886719 160.398438 182.808594 160.863281 182.65625 161.054688 C 182.425781 161.285156 182.078125 161.207031 181.847656 161.054688 C 182 161.171875 181.886719 161.09375 181.847656 161.054688 C 181.808594 161.015625 181.691406 160.9375 181.578125 160.902344 C 181.421875 160.863281 181.308594 160.746094 181.113281 160.667969 C 181 160.632812 181.230469 160.707031 181.074219 160.667969 C 181.074219 160.667969 181.039062 160.632812 180.960938 160.632812 C 180.84375 160.59375 180.804688 160.515625 180.691406 160.515625 C 180.652344 160.476562 180.574219 160.476562 180.535156 160.476562 C 180.535156 160.476562 180.496094 160.476562 180.496094 160.476562 C 180.460938 160.476562 180.460938 160.476562 180.421875 160.476562 C 180.34375 160.476562 180.226562 160.476562 180.152344 160.476562 C 180.113281 160.476562 180.035156 160.476562 179.996094 160.476562 C 179.996094 160.476562 179.996094 160.476562 179.957031 160.476562 C 179.84375 160.515625 179.726562 160.515625 179.609375 160.59375 C 179.609375 160.632812 179.574219 160.632812 179.574219 160.632812 C 179.535156 160.667969 179.457031 160.667969 179.417969 160.746094 C 179.378906 160.785156 179.304688 160.785156 179.265625 160.863281 L 179.226562 160.902344 C 179.03125 161.054688 178.917969 161.207031 178.800781 161.363281 C 180.382812 162.363281 182.039062 163.328125 180.691406 164.523438 C 179.996094 165.101562 178.300781 165.292969 177.953125 166.21875 C 179.882812 165.984375 181.921875 165.832031 183.964844 165.675781 C 184.390625 165.445312 184.777344 165.445312 185.199219 165.601562 C 186.007812 165.5625 186.820312 165.523438 187.628906 165.484375 C 187.628906 165.484375 187.628906 165.484375 187.667969 165.484375 C 187.667969 165.484375 187.628906 165.40625 187.628906 165.40625 C 187.472656 165.292969 187.359375 165.136719 187.242188 165.023438 C 187.011719 164.792969 186.742188 164.523438 186.433594 164.289062 C 186.203125 164.058594 186.277344 163.710938 186.546875 163.367188 C 186.78125 163.136719 187.125 163.136719 187.359375 163.367188 C 187.976562 163.945312 188.667969 164.523438 189.09375 165.332031 C 189.132812 165.371094 189.132812 165.445312 189.132812 165.484375 C 189.515625 165.484375 189.863281 165.484375 190.25 165.484375 C 190.59375 165.484375 190.941406 165.484375 191.289062 165.484375 C 191.328125 165.332031 191.40625 165.136719 191.445312 164.984375 C 191.789062 162.75 189.902344 160.785156 188.320312 159.398438 Z M 188.320312 159.398438 " fill-opacity="1" fill-rule="nonzero"/><path fill="#ffffff" d="M 196.839844 169.183594 C 196.839844 169.335938 196.878906 169.492188 196.878906 169.605469 C 196.105469 167.488281 194.449219 165.675781 192.253906 165.523438 C 192.714844 163.75 192.136719 162.132812 191.136719 160.707031 C 193.179688 161.75 195.800781 162.441406 198.882812 162.632812 C 197.378906 164.523438 196.648438 166.792969 196.839844 169.183594 Z M 197.300781 171.609375 C 197.339844 172.074219 197.339844 172.496094 197.300781 172.921875 C 197.609375 172.882812 197.917969 172.882812 198.226562 172.882812 C 197.804688 172.34375 197.457031 171.726562 197.226562 171.109375 C 197.300781 171.261719 197.300781 171.417969 197.300781 171.609375 Z M 210.90625 178.8125 C 210.90625 179.007812 210.945312 179.199219 210.945312 179.351562 C 213.257812 178.96875 215.492188 178.542969 217.652344 178.082031 C 217.652344 178.042969 217.652344 178.042969 217.691406 178.003906 C 218.039062 177.082031 218.421875 175.964844 218.808594 174.769531 C 216.726562 176.347656 213.796875 177.351562 210.675781 177.390625 C 210.753906 177.890625 210.867188 178.351562 210.90625 178.8125 Z M 126.34375 161.246094 C 126.847656 159.320312 128.351562 158.164062 130.046875 156.855469 C 131.007812 156.125 132.050781 155.316406 132.898438 154.351562 C 133.707031 153.464844 134.246094 152.464844 134.710938 151.617188 C 135.671875 149.84375 136.328125 148.574219 138.871094 148.535156 C 141.378906 148.457031 142.957031 148.109375 144.847656 146.378906 C 145.191406 146.070312 145.5 145.761719 145.808594 145.453125 C 146.8125 144.449219 147.773438 143.488281 149.164062 143.179688 C 149.664062 143.0625 150.203125 143.027344 150.820312 143.027344 C 151.589844 143.027344 152.363281 143.101562 153.171875 143.21875 C 154.328125 143.332031 155.636719 143.449219 156.71875 143.332031 C 157.449219 143.257812 157.949219 143.0625 158.375 142.757812 C 158.605469 143.910156 159.339844 144.992188 160.648438 145.335938 C 161.035156 145.453125 161.417969 145.492188 161.804688 145.492188 C 163.886719 145.492188 165.042969 143.875 165.082031 142.292969 C 165.121094 141.214844 164.65625 140.058594 163.617188 139.367188 C 166.082031 138.789062 169.011719 138.863281 172.289062 139.597656 C 174.175781 140.019531 176.796875 140.484375 179.148438 140.367188 C 180.921875 140.289062 182.617188 139.558594 184.234375 138.863281 C 186.007812 138.09375 187.667969 137.363281 189.4375 137.441406 C 191.097656 137.476562 192.601562 137.980469 194.21875 138.519531 C 195.953125 139.097656 197.726562 139.675781 199.652344 139.675781 C 200 139.675781 200.347656 139.636719 200.730469 139.597656 C 201.65625 139.480469 202.464844 139.25 203.238281 139.058594 C 204.199219 138.789062 205.125 138.558594 206.128906 138.558594 C 206.746094 138.558594 207.324219 138.632812 207.941406 138.863281 C 208.789062 139.132812 209.945312 139.597656 210.832031 140.289062 C 210.136719 140.867188 209.90625 141.753906 210.019531 142.523438 C 210.214844 143.71875 211.140625 144.605469 212.257812 144.605469 C 212.566406 144.605469 212.875 144.527344 213.21875 144.414062 C 214.492188 143.875 214.953125 143.027344 215.03125 142.253906 C 215.148438 142.253906 215.300781 142.253906 215.417969 142.253906 C 216.109375 142.253906 216.804688 142.179688 217.535156 142.101562 C 218 142.0625 218.5 141.984375 219 141.984375 C 221.003906 141.910156 222.855469 142.71875 224.859375 143.601562 C 226.671875 144.414062 228.558594 145.261719 230.640625 145.335938 C 231.066406 145.335938 231.488281 145.375 231.875 145.375 C 233.917969 145.414062 235.496094 145.453125 236.960938 146.992188 C 237.578125 147.648438 238.003906 148.34375 238.464844 149.035156 C 239.273438 150.304688 240.121094 151.617188 241.894531 152.386719 C 245.441406 153.929688 248.449219 155.46875 250.105469 157.972656 C 249.640625 160.515625 248.214844 162.980469 245.867188 165.371094 C 242.011719 169.222656 236.074219 172.535156 228.636719 175.117188 C 229.0625 173.421875 229.445312 171.726562 229.753906 170.070312 C 229.871094 170.144531 229.984375 170.183594 230.101562 170.261719 C 231.527344 170.957031 233.144531 171.1875 234.726562 171.109375 C 238.3125 170.992188 242.242188 168.875 243.089844 165.101562 C 243.4375 163.675781 243.207031 162.09375 242.589844 160.785156 C 242.089844 159.746094 241.277344 158.703125 240.121094 158.359375 C 239.042969 158.011719 237.808594 158.398438 236.847656 158.859375 C 236.460938 159.050781 236.113281 159.242188 235.730469 159.476562 C 235.613281 158.9375 235.496094 158.433594 235.34375 157.894531 C 235.1875 157.28125 234.878906 156.816406 234.1875 156.625 C 233.453125 156.394531 232.566406 156.625 231.835938 156.855469 C 231.566406 156.933594 231.296875 157.046875 231.027344 157.164062 C 230.988281 154.542969 230.71875 152.15625 230.21875 150 C 229.832031 148.378906 227.09375 146.839844 224.707031 146.839844 C 223.742188 146.839844 222.933594 147.070312 222.277344 147.53125 C 222.046875 147.6875 221.429688 148.109375 222.125 152.464844 C 221.082031 150.578125 219.925781 148.6875 219.195312 148.34375 C 218.925781 148.226562 218.65625 148.1875 218.308594 148.1875 C 216.304688 148.1875 212.988281 150.539062 212.0625 152.578125 C 211.523438 153.773438 211.949219 154.503906 212.257812 154.8125 C 213.179688 155.855469 214.375 157.394531 215.570312 159.128906 C 214.066406 158.472656 212.332031 158.050781 210.5625 157.933594 C 211.023438 157.203125 211.371094 156.394531 211.445312 155.585938 C 211.871094 152.269531 211.0625 149.382812 209.132812 147.1875 C 206.9375 144.683594 203.199219 143.179688 199.191406 143.179688 C 198.804688 143.179688 198.417969 143.179688 198.074219 143.21875 C 194.566406 143.449219 191.019531 145.144531 188.898438 147.609375 C 188.320312 148.265625 187.859375 148.957031 187.511719 149.691406 C 186.78125 149.265625 186.007812 149.035156 185.160156 149.035156 C 184.890625 149.035156 184.660156 149.074219 184.390625 149.113281 C 174.023438 150.882812 163.347656 155.007812 157.875 157.28125 C 155.40625 158.28125 154.636719 160.398438 154.984375 162.054688 C 155.289062 163.597656 156.71875 165.40625 159.761719 165.40625 C 159.839844 165.40625 159.917969 165.40625 160.03125 165.40625 C 165.195312 165.214844 172.867188 164.214844 179.03125 163.019531 C 179.148438 163.097656 179.265625 163.171875 179.339844 163.25 C 179.457031 163.367188 179.765625 163.558594 179.84375 163.675781 C 179.765625 163.789062 179.609375 163.828125 179.496094 163.90625 C 178.300781 164.523438 176.71875 164.945312 176.605469 166.449219 C 171.671875 167.027344 167.355469 167.796875 164.503906 168.375 C 162.230469 168.835938 160.6875 170.570312 160.726562 172.613281 C 160.765625 174.191406 161.882812 176.234375 165.003906 176.734375 C 167.664062 177.15625 171.132812 177.503906 174.832031 177.734375 C 174.445312 178.390625 174.253906 179.082031 174.292969 179.777344 C 174.292969 180.046875 174.332031 180.355469 174.40625 180.664062 C 170.324219 180.316406 166.351562 179.777344 162.574219 179.121094 C 159.144531 175 153.402344 168.066406 152.746094 167.335938 C 152.015625 166.5625 149.433594 166.488281 148.316406 166.488281 C 146.851562 166.488281 142.03125 166.640625 141.070312 168.757812 C 140.566406 169.800781 141.683594 171.765625 143.265625 173.804688 C 134.863281 170.378906 128.851562 166.0625 126.34375 161.246094 Z M 159.761719 168.914062 C 160.917969 168.914062 160.917969 167.640625 159.761719 167.640625 C 158.605469 167.640625 158.605469 168.914062 159.761719 168.914062 Z M 245.828125 158.472656 C 246.984375 158.511719 246.984375 157.203125 245.828125 157.203125 C 244.671875 157.203125 244.671875 158.472656 245.828125 158.472656 Z M 240.046875 156.738281 C 241.203125 156.738281 241.203125 155.46875 240.046875 155.46875 C 238.890625 155.46875 238.890625 156.738281 240.046875 156.738281 Z M 231.140625 152.039062 C 231.140625 152.078125 231.179688 152.117188 231.179688 152.15625 C 231.914062 154.121094 234.648438 154.46875 236.230469 153.3125 C 237.308594 152.503906 237.5 151.117188 236.921875 149.921875 C 236.691406 149.421875 236.230469 148.84375 235.730469 148.613281 C 235.152344 148.378906 234.457031 148.34375 233.839844 148.378906 C 233.109375 148.496094 232.296875 148.765625 231.835938 149.421875 C 231.21875 150.230469 230.910156 151.152344 231.140625 152.039062 Z M 212.527344 147.339844 C 213.605469 147.378906 213.605469 146.070312 212.527344 146.070312 C 211.410156 146.070312 211.410156 147.339844 212.527344 147.339844 Z M 182.578125 144.566406 C 183.734375 144.566406 183.734375 143.296875 182.578125 143.296875 C 181.421875 143.296875 181.421875 144.566406 182.578125 144.566406 Z M 177.066406 146.570312 C 178.222656 146.609375 178.222656 145.296875 177.066406 145.296875 C 175.910156 145.296875 175.910156 146.570312 177.066406 146.570312 Z M 169.320312 145.222656 C 169.511719 146.414062 170.4375 147.300781 171.554688 147.300781 C 171.863281 147.300781 172.171875 147.226562 172.480469 147.109375 C 174.0625 146.492188 174.484375 145.296875 174.292969 144.414062 C 174.0625 143.257812 173.019531 142.410156 171.824219 142.410156 C 171.515625 142.410156 171.246094 142.449219 170.9375 142.5625 C 169.589844 142.988281 169.167969 144.21875 169.320312 145.222656 Z M 159.644531 151.925781 C 159.800781 152.65625 160.457031 153.234375 161.1875 153.425781 C 161.921875 153.542969 162.691406 153.386719 163.269531 152.847656 C 164 152.15625 164 151.078125 163.617188 150.269531 C 163.460938 149.882812 163.152344 149.535156 162.769531 149.34375 C 162.304688 149.113281 161.804688 149.113281 161.34375 149.1875 C 160.03125 149.34375 159.335938 150.730469 159.644531 151.925781 Z M 137.523438 166.253906 C 136.367188 166.253906 136.367188 167.527344 137.523438 167.527344 C 138.601562 167.605469 138.601562 166.253906 137.523438 166.253906 Z M 156.792969 155.46875 C 157.949219 155.507812 157.949219 154.199219 156.792969 154.199219 C 155.636719 154.199219 155.636719 155.46875 156.792969 155.46875 Z M 150.433594 149.421875 C 150.664062 150.882812 151.785156 151.925781 153.132812 151.925781 C 153.519531 151.925781 153.902344 151.847656 154.289062 151.695312 C 156.214844 150.960938 156.679688 149.496094 156.484375 148.417969 C 156.214844 147.03125 154.90625 145.992188 153.441406 145.992188 C 153.09375 145.992188 152.746094 146.03125 152.398438 146.144531 C 150.78125 146.683594 150.242188 148.1875 150.433594 149.421875 Z M 137.175781 157.242188 C 137.675781 157.703125 138.253906 157.820312 138.910156 157.933594 C 139.140625 157.972656 139.410156 158.011719 139.644531 158.089844 C 139.410156 158.359375 139.179688 158.628906 138.988281 158.859375 C 138.253906 159.628906 137.523438 160.667969 137.40625 161.710938 C 137.40625 161.75 137.367188 161.824219 137.367188 161.863281 C 137.367188 161.941406 137.367188 161.980469 137.40625 162.054688 C 137.5625 163.097656 138.488281 163.828125 139.410156 164.253906 C 140.835938 164.945312 142.457031 165.175781 144.035156 165.101562 C 147.621094 164.984375 151.550781 162.867188 152.398438 159.089844 C 152.746094 157.664062 152.515625 156.085938 151.898438 154.773438 C 151.398438 153.734375 150.589844 152.695312 149.433594 152.347656 C 148.351562 152 147.121094 152.386719 146.15625 152.8125 C 145.769531 153.003906 145.386719 153.195312 145.039062 153.425781 C 144.921875 152.925781 144.808594 152.425781 144.652344 151.964844 C 144.5 151.347656 144.191406 150.882812 143.496094 150.691406 C 142.765625 150.460938 141.878906 150.691406 141.144531 150.921875 C 139.835938 151.386719 138.5625 152.078125 137.675781 153.15625 C 136.714844 154.234375 135.828125 156.164062 137.175781 157.242188 Z M 133.628906 163.480469 C 134.785156 163.480469 134.785156 162.210938 133.628906 162.210938 C 132.472656 162.210938 132.472656 163.480469 133.628906 163.480469 Z M 190.210938 158.78125 C 190.941406 157.664062 191.171875 156.238281 190.867188 154.621094 C 190.558594 153.042969 189.632812 151.421875 188.398438 150.304688 C 188.746094 149.613281 189.167969 148.917969 189.710938 148.304688 C 191.675781 146.070312 194.875 144.527344 198.113281 144.296875 C 198.457031 144.257812 198.804688 144.257812 199.152344 144.257812 C 202.851562 144.257812 206.242188 145.605469 208.25 147.878906 C 209.984375 149.84375 210.636719 152.347656 210.253906 155.351562 C 210.136719 156.238281 209.710938 157.046875 209.097656 157.820312 C 208.863281 157.820312 208.59375 157.820312 208.363281 157.855469 C 205.203125 158.089844 202.082031 159.4375 199.882812 161.515625 C 199.769531 161.515625 199.652344 161.515625 199.5 161.515625 C 195.492188 161.363281 192.253906 160.359375 190.210938 158.78125 Z M 192.253906 150.5 C 192.332031 151.386719 193.140625 154.273438 199.539062 154.351562 C 202.273438 154.351562 204.546875 153.503906 205.742188 152.039062 C 206.4375 151.191406 206.746094 150.191406 206.511719 149.152344 C 206.011719 146.761719 203.351562 145.222656 199.730469 145.222656 C 199.539062 145.222656 199.304688 145.222656 199.113281 145.222656 C 197.261719 145.335938 194.605469 146.070312 193.179688 147.765625 C 192.484375 148.574219 192.175781 149.535156 192.253906 150.5 Z M 193.410156 150.382812 C 193.332031 149.730469 193.5625 149.074219 194.027344 148.535156 C 195.144531 147.226562 197.417969 146.53125 199.152344 146.414062 C 199.34375 146.414062 199.539062 146.414062 199.691406 146.414062 C 202.699219 146.414062 204.972656 147.648438 205.355469 149.421875 C 205.472656 150.113281 205.320312 150.769531 204.816406 151.347656 C 203.855469 152.503906 201.886719 153.234375 199.5 153.234375 C 195.222656 153.15625 193.5625 151.730469 193.410156 150.382812 Z M 195.566406 149.613281 C 195.644531 150.730469 196.683594 151.886719 199.5 151.886719 C 200.964844 151.886719 202.160156 151.421875 202.851562 150.652344 C 203.277344 150.152344 203.429688 149.535156 203.316406 148.917969 C 203.042969 147.570312 201.582031 146.648438 199.691406 146.648438 C 199.574219 146.648438 199.421875 146.648438 199.304688 146.648438 C 198.074219 146.683594 196.839844 147.226562 196.144531 147.957031 C 195.722656 148.417969 195.527344 148.996094 195.566406 149.613281 Z M 199.5 150.730469 C 200.578125 150.730469 201.503906 150.421875 201.925781 149.882812 C 202.121094 149.652344 202.195312 149.382812 202.160156 149.074219 C 202.003906 148.304688 200.964844 147.726562 199.691406 147.726562 C 199.574219 147.726562 199.460938 147.726562 199.382812 147.726562 C 198.417969 147.765625 197.496094 148.148438 197.03125 148.648438 C 196.800781 148.917969 196.722656 149.1875 196.722656 149.460938 C 196.761719 150.113281 197.609375 150.730469 199.5 150.730469 Z M 219.773438 168.953125 C 219.8125 170.109375 219.617188 171.417969 219.308594 172.726562 C 217.5 174.808594 214.03125 176.273438 210.367188 176.273438 C 210.289062 176.273438 210.253906 176.273438 210.175781 176.273438 C 209.289062 174.34375 207.667969 172.804688 205.589844 172.726562 C 204.933594 172.726562 204.238281 172.6875 203.585938 172.6875 C 202.273438 172.6875 201.003906 172.726562 199.691406 172.765625 C 198.652344 171.726562 198.035156 170.492188 197.957031 169.066406 C 197.804688 166.792969 198.496094 164.753906 200 162.980469 C 201.964844 160.746094 205.164062 159.207031 208.402344 158.972656 C 208.75 158.9375 209.097656 158.9375 209.441406 158.9375 C 212.179688 158.9375 214.800781 159.707031 216.765625 161.015625 C 218.382812 163.710938 219.695312 166.601562 219.773438 168.953125 Z M 216.882812 163.90625 C 216.378906 161.515625 213.722656 159.976562 210.097656 159.976562 C 209.90625 159.976562 209.675781 159.976562 209.480469 159.976562 C 207.632812 160.089844 204.972656 160.824219 203.546875 162.519531 C 202.851562 163.328125 202.542969 164.253906 202.660156 165.253906 C 202.738281 166.179688 203.546875 169.105469 209.945312 169.105469 C 212.679688 169.105469 214.953125 168.257812 216.148438 166.792969 C 216.804688 165.945312 217.074219 164.945312 216.882812 163.90625 Z M 215.726562 164.136719 C 215.839844 164.828125 215.6875 165.484375 215.1875 166.0625 C 214.222656 167.21875 212.21875 167.949219 209.867188 167.949219 C 206.207031 167.949219 203.929688 166.910156 203.738281 165.136719 C 203.660156 164.484375 203.894531 163.828125 204.355469 163.289062 C 205.472656 161.980469 207.746094 161.285156 209.480469 161.171875 C 209.675781 161.171875 209.867188 161.171875 210.019531 161.171875 C 213.066406 161.09375 215.339844 162.324219 215.726562 164.136719 Z M 213.644531 163.675781 C 213.375 162.324219 211.910156 161.402344 210.019531 161.402344 C 209.90625 161.402344 209.75 161.402344 209.636719 161.402344 C 208.402344 161.441406 207.167969 161.980469 206.476562 162.710938 C 206.050781 163.210938 205.820312 163.789062 205.898438 164.367188 C 205.933594 164.90625 206.320312 166.640625 209.828125 166.640625 C 211.292969 166.640625 212.488281 166.179688 213.179688 165.371094 C 213.566406 164.90625 213.757812 164.289062 213.644531 163.675781 Z M 210.019531 162.558594 C 209.90625 162.558594 209.789062 162.558594 209.710938 162.558594 C 208.75 162.59375 207.824219 162.980469 207.363281 163.480469 C 207.128906 163.75 207.054688 164.019531 207.054688 164.289062 C 207.089844 165.023438 208.171875 165.484375 209.828125 165.484375 C 210.90625 165.484375 211.832031 165.175781 212.257812 164.636719 C 212.449219 164.40625 212.527344 164.136719 212.488281 163.828125 C 212.332031 163.097656 211.332031 162.558594 210.019531 162.558594 Z M 153.132812 150.769531 C 153.363281 150.769531 153.59375 150.730469 153.863281 150.613281 C 154.984375 150.191406 155.523438 149.460938 155.367188 148.648438 C 155.214844 147.917969 154.519531 147.148438 153.480469 147.148438 C 153.25 147.148438 153.015625 147.1875 152.785156 147.261719 C 151.746094 147.609375 151.515625 148.496094 151.628906 149.226562 C 151.707031 149.960938 152.246094 150.769531 153.132812 150.769531 Z M 171.554688 146.144531 C 171.710938 146.144531 171.902344 146.109375 172.058594 146.03125 C 172.867188 145.722656 173.289062 145.183594 173.175781 144.605469 C 173.097656 144.105469 172.597656 143.566406 171.824219 143.566406 C 171.671875 143.566406 171.480469 143.601562 171.285156 143.640625 C 170.359375 143.949219 170.398438 144.796875 170.4375 145.027344 C 170.554688 145.566406 170.9375 146.144531 171.554688 146.144531 Z M 212.296875 143.371094 C 212.449219 143.371094 212.640625 143.332031 212.796875 143.257812 C 213.605469 142.910156 213.992188 142.410156 213.875 141.792969 C 213.757812 141.292969 213.296875 140.792969 212.566406 140.792969 C 212.410156 140.792969 212.21875 140.828125 212.0625 140.867188 C 211.140625 141.175781 211.175781 142.023438 211.214844 142.253906 C 211.253906 142.792969 211.640625 143.371094 212.296875 143.371094 Z M 160.996094 144.179688 C 161.304688 144.257812 161.574219 144.296875 161.84375 144.296875 C 163.230469 144.296875 163.925781 143.21875 163.964844 142.214844 C 164 141.214844 163.421875 140.019531 161.652344 139.90625 C 161.574219 139.90625 161.496094 139.90625 161.417969 139.90625 C 160.1875 139.90625 159.609375 140.828125 159.492188 141.675781 C 159.375 142.679688 159.839844 143.875 160.996094 144.179688 Z M 232.261719 151.769531 C 232.261719 151.808594 232.296875 151.886719 232.296875 151.925781 C 232.261719 151.808594 232.296875 151.964844 232.296875 151.964844 C 232.335938 152 232.335938 152.078125 232.414062 152.117188 C 232.414062 152.117188 232.453125 152.15625 232.453125 152.15625 C 232.492188 152.195312 232.492188 152.195312 232.492188 152.195312 C 232.53125 152.234375 232.53125 152.234375 232.605469 152.308594 C 232.605469 152.308594 232.761719 152.425781 232.644531 152.347656 C 232.683594 152.347656 232.683594 152.386719 232.761719 152.386719 C 232.839844 152.386719 232.914062 152.425781 232.992188 152.503906 C 232.992188 152.539062 233.03125 152.539062 233.03125 152.539062 C 233.03125 152.539062 233.070312 152.578125 233.144531 152.578125 C 233.261719 152.578125 233.300781 152.617188 233.417969 152.617188 C 233.453125 152.65625 233.53125 152.65625 233.570312 152.65625 C 233.609375 152.65625 233.609375 152.65625 233.609375 152.65625 C 233.761719 152.65625 233.996094 152.65625 234.1875 152.65625 C 234.226562 152.65625 234.226562 152.65625 234.300781 152.65625 C 234.339844 152.65625 234.339844 152.65625 234.339844 152.65625 C 234.457031 152.65625 234.496094 152.617188 234.609375 152.617188 C 234.726562 152.578125 234.765625 152.578125 234.878906 152.503906 C 234.917969 152.503906 235.035156 152.464844 234.917969 152.503906 C 234.957031 152.503906 234.957031 152.464844 235.035156 152.464844 C 235.113281 152.464844 235.1875 152.425781 235.265625 152.347656 C 235.304688 152.347656 235.304688 152.308594 235.382812 152.308594 C 235.421875 152.269531 235.535156 152.15625 235.613281 152.078125 C 235.613281 152.039062 235.652344 151.964844 235.613281 152.078125 C 235.613281 152.039062 235.652344 152.039062 235.652344 151.964844 C 235.765625 151.808594 235.765625 151.730469 235.804688 151.5 C 235.84375 151.347656 235.84375 151.039062 235.804688 150.882812 C 235.765625 150.652344 235.691406 150.5 235.574219 150.269531 C 235.457031 150.035156 235.34375 149.921875 235.1875 149.765625 C 235.1875 149.730469 235.152344 149.652344 235.074219 149.652344 C 235.074219 149.613281 234.957031 149.574219 234.996094 149.574219 C 234.996094 149.574219 235.035156 149.574219 235.035156 149.613281 C 234.996094 149.613281 234.996094 149.574219 234.996094 149.574219 C 234.957031 149.535156 234.917969 149.535156 234.84375 149.535156 C 234.496094 149.421875 233.996094 149.421875 233.570312 149.496094 C 233.109375 149.613281 232.722656 149.765625 232.414062 150.113281 C 232.296875 150.691406 232.144531 151.269531 232.261719 151.769531 Z M 162.460938 151.886719 L 162.421875 151.925781 C 162.460938 151.925781 162.460938 151.886719 162.460938 151.886719 Z M 160.726562 151.847656 C 160.726562 151.886719 160.765625 151.886719 160.765625 151.925781 C 160.800781 151.925781 160.800781 151.964844 160.800781 151.964844 L 160.839844 152 L 160.996094 152.117188 L 161.109375 152.15625 C 161.109375 152.15625 160.957031 152.117188 161.074219 152.15625 C 161.109375 152.15625 161.1875 152.195312 161.226562 152.195312 C 161.265625 152.195312 161.265625 152.195312 161.265625 152.195312 C 161.304688 152.195312 161.304688 152.195312 161.304688 152.195312 C 161.378906 152.195312 161.417969 152.195312 161.457031 152.195312 L 161.574219 152.195312 C 161.457031 152.195312 161.574219 152.15625 161.613281 152.195312 C 161.613281 152.195312 161.652344 152.195312 161.652344 152.195312 C 161.6875 152.195312 161.765625 152.15625 161.804688 152.15625 L 161.921875 152.117188 C 161.921875 152.117188 161.882812 152.117188 161.882812 152.117188 C 161.765625 152.15625 161.882812 152.078125 161.921875 152.117188 C 161.957031 152.117188 161.996094 152.117188 162.035156 152.078125 L 162.074219 152.039062 C 162.113281 152 162.113281 152 162.191406 151.925781 C 162.265625 151.847656 162.230469 151.808594 162.230469 151.886719 C 162.265625 151.847656 162.265625 151.769531 162.34375 151.730469 C 162.382812 151.695312 162.34375 151.695312 162.34375 151.730469 C 162.382812 151.695312 162.382812 151.695312 162.382812 151.617188 L 162.382812 151.539062 C 162.382812 151.539062 162.382812 151.539062 162.382812 151.5 L 162.382812 151.460938 C 162.382812 151.347656 162.382812 151.308594 162.382812 151.191406 C 162.382812 151.152344 162.382812 151.152344 162.382812 151.078125 C 162.382812 151.039062 162.34375 150.921875 162.34375 150.847656 C 162.34375 150.847656 162.34375 150.808594 162.34375 150.808594 C 162.34375 150.769531 162.304688 150.769531 162.304688 150.730469 C 162.304688 150.730469 162.265625 150.691406 162.265625 150.613281 C 162.265625 150.539062 162.113281 150.460938 162.113281 150.460938 C 162.074219 150.460938 162.074219 150.421875 162.113281 150.460938 L 162.074219 150.421875 L 161.957031 150.421875 C 161.921875 150.382812 161.84375 150.382812 161.804688 150.382812 L 161.574219 150.382812 C 161.535156 150.382812 161.417969 150.382812 161.34375 150.382812 C 161.304688 150.382812 161.304688 150.382812 161.226562 150.382812 C 161.1875 150.382812 161.109375 150.421875 161.074219 150.421875 C 161.074219 150.421875 161.035156 150.421875 161.035156 150.421875 C 160.996094 150.421875 160.996094 150.460938 160.957031 150.460938 C 160.917969 150.460938 160.917969 150.460938 160.917969 150.5 C 160.917969 150.5 160.917969 150.5 160.878906 150.5 C 160.839844 150.539062 160.800781 150.613281 160.765625 150.652344 C 160.765625 150.691406 160.726562 150.691406 160.726562 150.769531 C 160.726562 150.847656 160.6875 150.882812 160.6875 150.921875 C 160.726562 150.808594 160.6875 150.960938 160.6875 150.960938 C 160.6875 151.078125 160.648438 151.117188 160.648438 151.230469 C 160.648438 151.230469 160.648438 151.269531 160.648438 151.269531 C 160.648438 151.308594 160.648438 151.386719 160.648438 151.421875 C 160.648438 151.460938 160.648438 151.539062 160.648438 151.578125 C 160.609375 151.460938 160.648438 151.617188 160.648438 151.617188 C 160.726562 151.730469 160.726562 151.808594 160.726562 151.847656 Z M 162.191406 150.304688 C 162.191406 150.304688 162.191406 150.304688 162.230469 150.34375 C 162.230469 150.34375 162.191406 150.304688 162.191406 150.304688 Z M 162.574219 151.695312 C 162.535156 151.769531 162.574219 151.730469 162.574219 151.695312 Z M 161.074219 150.382812 Z M 118.484375 156.894531 C 118.523438 140.753906 149.507812 127.65625 187.589844 127.65625 C 225.667969 127.65625 256.65625 140.753906 256.695312 156.894531 C 256.65625 172.996094 225.667969 186.132812 187.589844 186.132812 C 149.507812 186.132812 118.523438 172.996094 118.484375 156.894531 Z M 123.800781 156.046875 C 123.800781 163.171875 130.507812 169.800781 142.6875 174.769531 C 154.675781 179.660156 170.628906 182.320312 187.589844 182.320312 C 213.644531 182.320312 236.808594 175.964844 246.597656 166.140625 C 249.757812 162.941406 251.375 159.550781 251.339844 156.046875 C 251.339844 148.917969 244.632812 142.292969 232.453125 137.324219 C 220.464844 132.429688 204.507812 129.773438 187.550781 129.773438 C 170.59375 129.773438 154.636719 132.46875 142.648438 137.324219 C 130.507812 142.292969 123.800781 148.917969 123.800781 156.046875 Z M 187.589844 198.039062 C 149.507812 198.039062 118.484375 184.902344 118.484375 168.757812 L 118.484375 174.269531 C 124.496094 188.445312 153.171875 199.191406 187.589844 199.191406 C 206.28125 199.191406 223.859375 196.074219 237.078125 190.410156 C 247.40625 185.980469 254.113281 180.433594 256.695312 174.34375 L 256.695312 168.757812 C 256.695312 184.902344 225.667969 198.039062 187.589844 198.039062 Z M 232.683594 166.523438 C 232.644531 166.523438 232.644531 166.488281 232.644531 166.488281 C 232.644531 166.488281 232.605469 166.449219 232.605469 166.371094 C 232.453125 166.140625 231.988281 166.140625 231.796875 166.371094 C 231.449219 166.601562 231.449219 166.871094 231.683594 167.179688 C 232.296875 167.910156 233.453125 167.875 234.339844 167.679688 C 235.265625 167.527344 236.230469 167.179688 237 166.640625 C 237.269531 166.488281 237.347656 166.140625 237.230469 165.832031 C 237.078125 165.601562 236.730469 165.445312 236.421875 165.601562 C 236.269531 165.714844 236.152344 165.753906 235.960938 165.871094 C 235.730469 165.984375 235.691406 166.023438 235.496094 166.101562 C 235.113281 166.253906 234.648438 166.371094 234.226562 166.488281 C 233.996094 166.523438 233.957031 166.523438 233.722656 166.523438 C 233.570312 166.523438 233.339844 166.523438 233.144531 166.523438 C 233.109375 166.523438 233.109375 166.523438 233.109375 166.523438 C 233.070312 166.523438 233.070312 166.523438 233.03125 166.523438 C 232.992188 166.523438 232.914062 166.523438 232.914062 166.488281 C 232.914062 166.488281 232.800781 166.449219 232.875 166.488281 C 232.953125 166.523438 232.839844 166.488281 232.839844 166.488281 C 232.722656 166.5625 232.722656 166.523438 232.683594 166.523438 Z M 239.351562 164.175781 C 239.390625 164.214844 239.46875 164.214844 239.582031 164.214844 C 239.621094 164.214844 239.699219 164.214844 239.738281 164.214844 C 239.851562 164.214844 239.890625 164.175781 239.96875 164.058594 C 240.007812 164.019531 240.007812 164.019531 240.082031 163.945312 C 240.082031 163.90625 240.121094 163.789062 240.121094 163.675781 L 240.121094 163.519531 C 240.121094 163.480469 240.121094 163.367188 240.082031 163.289062 C 240.082031 163.25 240.046875 163.171875 239.96875 163.136719 C 239.890625 163.097656 239.851562 163.019531 239.8125 163.019531 C 239.777344 162.980469 239.699219 162.980469 239.582031 162.980469 C 239.542969 162.980469 239.46875 162.980469 239.429688 162.980469 C 239.3125 162.980469 239.273438 163.019531 239.199219 163.136719 L 239.082031 163.25 C 239.042969 163.367188 239.042969 163.40625 239.042969 163.519531 L 239.042969 163.675781 C 239.042969 163.710938 239.042969 163.828125 239.082031 163.90625 C 239.082031 163.945312 239.121094 164.019531 239.199219 164.058594 C 239.273438 164.097656 239.273438 164.175781 239.351562 164.175781 Z M 141.957031 160.554688 C 141.992188 160.554688 141.992188 160.554688 141.992188 160.59375 C 141.992188 160.554688 141.957031 160.554688 141.957031 160.554688 Z M 143.613281 161.75 C 144.539062 161.59375 145.5 161.246094 146.273438 160.707031 C 146.542969 160.554688 146.617188 160.207031 146.503906 159.898438 C 146.347656 159.667969 146.003906 159.515625 145.695312 159.667969 C 145.539062 159.785156 145.425781 159.820312 145.230469 159.9375 C 145 160.054688 144.960938 160.089844 144.769531 160.167969 C 144.382812 160.324219 143.921875 160.4375 143.496094 160.554688 C 143.265625 160.59375 143.226562 160.59375 142.996094 160.59375 C 142.839844 160.59375 142.609375 160.59375 142.417969 160.59375 C 142.378906 160.59375 142.378906 160.59375 142.378906 160.59375 C 142.339844 160.59375 142.339844 160.59375 142.300781 160.59375 C 142.261719 160.59375 142.1875 160.59375 142.1875 160.554688 C 142.1875 160.554688 142.070312 160.515625 142.148438 160.554688 C 142.1875 160.59375 142.109375 160.554688 142.109375 160.554688 C 142.070312 160.554688 142.070312 160.515625 141.992188 160.515625 C 141.992188 160.476562 141.957031 160.476562 141.957031 160.398438 C 141.800781 160.167969 141.339844 160.167969 141.144531 160.398438 C 140.800781 160.632812 140.875 160.976562 141.03125 161.207031 C 141.609375 161.980469 142.765625 161.941406 143.613281 161.75 Z M 148.46875 158.164062 C 148.507812 158.203125 148.585938 158.28125 148.625 158.28125 C 148.660156 158.320312 148.738281 158.320312 148.855469 158.320312 C 148.894531 158.320312 148.96875 158.320312 149.007812 158.320312 C 149.125 158.320312 149.164062 158.28125 149.238281 158.164062 C 149.277344 158.125 149.277344 158.125 149.355469 158.050781 C 149.394531 157.933594 149.394531 157.820312 149.394531 157.78125 L 149.394531 157.625 C 149.394531 157.585938 149.394531 157.472656 149.355469 157.394531 C 149.355469 157.355469 149.316406 157.28125 149.238281 157.242188 C 149.203125 157.203125 149.125 157.125 149.085938 157.125 C 149.046875 157.085938 148.96875 157.085938 148.855469 157.085938 C 148.816406 157.085938 148.738281 157.085938 148.699219 157.085938 C 148.585938 157.085938 148.546875 157.125 148.46875 157.242188 L 148.351562 157.355469 C 148.316406 157.472656 148.316406 157.511719 148.316406 157.625 L 148.316406 157.78125 C 148.316406 157.820312 148.316406 157.933594 148.351562 158.011719 C 148.351562 158.050781 148.429688 158.125 148.46875 158.164062 Z M 184.929688 157.933594 C 184.660156 157.820312 184.3125 158.050781 184.234375 158.320312 C 184.082031 158.667969 184.273438 158.898438 184.582031 159.011719 C 184.46875 158.972656 184.621094 159.011719 184.621094 159.011719 C 184.660156 159.011719 184.738281 159.050781 184.777344 159.050781 C 184.890625 159.089844 184.929688 159.167969 185.046875 159.207031 C 185.277344 159.320312 185.429688 159.4375 185.625 159.589844 C 185.738281 159.628906 185.96875 159.859375 186.085938 159.976562 C 186.242188 160.128906 186.472656 160.324219 186.664062 160.554688 C 187.359375 161.246094 187.9375 162.054688 188.320312 162.980469 C 188.4375 163.25 188.824219 163.328125 189.132812 163.210938 C 189.402344 163.058594 189.476562 162.710938 189.363281 162.402344 C 188.898438 161.363281 188.207031 160.515625 187.472656 159.707031 C 186.78125 159.050781 185.933594 158.359375 184.929688 157.933594 Z M 174.332031 154.3125 C 173.484375 154.503906 171.441406 155.199219 169.28125 155.929688 C 167.125 156.664062 164.65625 157.511719 163.847656 157.664062 C 163.539062 157.703125 163.308594 158.011719 163.386719 158.359375 C 163.421875 158.628906 163.691406 158.820312 163.964844 158.820312 C 164 158.820312 164.039062 158.820312 164.078125 158.820312 C 164.964844 158.667969 167.238281 157.855469 169.667969 157.046875 C 171.710938 156.355469 173.792969 155.621094 174.5625 155.46875 C 174.871094 155.390625 175.0625 155.082031 175.023438 154.773438 C 174.949219 154.429688 174.640625 154.234375 174.332031 154.3125 Z M 180.882812 169.027344 L 169.707031 170.300781 C 169.398438 170.339844 169.167969 170.609375 169.203125 170.957031 C 169.242188 171.261719 169.472656 171.457031 169.78125 171.457031 C 169.820312 171.457031 169.820312 171.457031 169.859375 171.457031 L 181.039062 170.183594 C 181.34375 170.144531 181.578125 169.875 181.539062 169.53125 C 181.5 169.183594 181.230469 168.992188 180.882812 169.027344 Z M 193.371094 176.308594 C 191.714844 176.425781 190.09375 176.65625 188.515625 176.847656 C 187.011719 177.042969 185.429688 177.273438 183.851562 177.390625 C 183.542969 177.425781 183.273438 177.695312 183.3125 178.003906 C 183.351562 178.3125 183.582031 178.542969 183.890625 178.542969 C 183.890625 178.542969 183.929688 178.542969 183.929688 178.542969 C 185.507812 178.429688 187.125 178.199219 188.667969 178.003906 C 190.25 177.8125 191.867188 177.582031 193.488281 177.464844 C 193.792969 177.425781 194.066406 177.15625 194.027344 176.847656 C 193.949219 176.542969 193.679688 176.308594 193.371094 176.308594 Z M 151.359375 169.914062 C 151.128906 169.683594 150.78125 169.644531 150.550781 169.875 C 150.320312 170.109375 150.28125 170.453125 150.511719 170.6875 C 151.746094 172.074219 152.746094 173.421875 153.75 175.078125 C 153.863281 175.269531 154.058594 175.347656 154.25 175.347656 C 154.367188 175.347656 154.441406 175.308594 154.558594 175.269531 C 154.828125 175.117188 154.90625 174.730469 154.75 174.460938 C 153.671875 172.726562 152.671875 171.339844 151.359375 169.914062 Z M 221.929688 160.4375 C 221.351562 159.050781 220.773438 157.625 220.3125 156.238281 C 220.195312 155.929688 219.886719 155.777344 219.578125 155.855469 C 219.269531 155.96875 219.117188 156.277344 219.195312 156.585938 C 219.65625 158.050781 220.273438 159.476562 220.851562 160.902344 C 221.3125 162.054688 221.816406 163.210938 222.238281 164.367188 C 222.316406 164.597656 222.546875 164.753906 222.777344 164.753906 C 222.855469 164.753906 222.894531 164.753906 222.972656 164.714844 C 223.28125 164.597656 223.433594 164.289062 223.316406 163.984375 C 222.894531 162.789062 222.394531 161.59375 221.929688 160.4375 Z M 221.929688 160.4375 " fill-opacity="1" fill-rule="nonzero"/></svg>