<svg xmlns="http://www.w3.org/2000/svg" xmlns:xlink="http://www.w3.org/1999/xlink" width="500" zoomAndPan="magnify" viewBox="0 0 375 374.999991" height="500" preserveAspectRatio="xMidYMid meet" version="1.0"><defs><clipPath id="565eb70571"><path d="M 49.808594 49.808594 L 325.191406 49.808594 L 325.191406 325.191406 L 49.808594 325.191406 Z M 49.808594 49.808594 " clip-rule="nonzero"/></clipPath><clipPath id="2a32c9428a"><path d="M 187.5 49.808594 C 111.457031 49.808594 49.808594 111.457031 49.808594 187.5 C 49.808594 263.542969 111.457031 325.191406 187.5 325.191406 C 263.542969 325.191406 325.191406 263.542969 325.191406 187.5 C 325.191406 111.457031 263.542969 49.808594 187.5 49.808594 Z M 187.5 49.808594 " clip-rule="nonzero"/></clipPath><clipPath id="b647be10c6"><path d="M 260 154 L 270.261719 154 L 270.261719 167 L 260 167 Z M 260 154 " clip-rule="nonzero"/></clipPath><clipPath id="b1a2f4b3e1"><path d="M 248 143 L 270.261719 143 L 270.261719 158 L 248 158 Z M 248 143 " clip-rule="nonzero"/></clipPath><clipPath id="d3dbbd273c"><path d="M 124 235 L 237 235 L 237 262.5 L 124 262.5 Z M 124 235 " clip-rule="nonzero"/></clipPath><clipPath id="ad2bee0307"><path d="M 104.511719 178 L 257 178 L 257 238 L 104.511719 238 Z M 104.511719 178 " clip-rule="nonzero"/></clipPath><clipPath id="f1f8dc87de"><path d="M 104.511719 147 L 168 147 L 168 189 L 104.511719 189 Z M 104.511719 147 " clip-rule="nonzero"/></clipPath><clipPath id="5273e4a2a5"><path d="M 161 112.5 L 171 112.5 L 171 140 L 161 140 Z M 161 112.5 " clip-rule="nonzero"/></clipPath><clipPath id="7a2812a6ae"><path d="M 194 112.5 L 204 112.5 L 204 141 L 194 141 Z M 194 112.5 " clip-rule="nonzero"/></clipPath></defs><g clip-path="url(#565eb70571)"><g clip-path="url(#2a32c9428a)"><path fill="#28a745" d="M 49.808594 49.808594 L 325.191406 49.808594 L 325.191406 325.191406 L 49.808594 325.191406 Z M 49.808594 49.808594 " fill-opacity="1" fill-rule="nonzero"/></g></g><g clip-path="url(#b647be10c6)"><path fill="#524956" d="M 260.710938 157.808594 L 262.949219 166.667969 L 270.261719 164.242188 L 270.261719 154.691406 C 266.476562 153.671875 263.390625 155.039062 260.710938 157.808594 Z M 260.710938 157.808594 " fill-opacity="1" fill-rule="nonzero"/></g><g clip-path="url(#b1a2f4b3e1)"><path fill="#5d5560" d="M 270.261719 143.105469 L 270.261719 154.691406 L 260.710938 157.808594 C 251.125 156.949219 247.640625 154.320312 248.660156 150.390625 Z M 270.261719 143.105469 " fill-opacity="1" fill-rule="nonzero"/></g><path fill="#5d5560" d="M 262.949219 161.816406 L 262.949219 166.667969 C 262.949219 168.664062 261.695312 170.445312 259.8125 171.105469 L 255.050781 172.792969 C 248.480469 171.773438 246.5 168.503906 247.675781 163.75 C 247.769531 156.890625 253.800781 156.757812 262.273438 159.386719 C 262.710938 160.109375 262.949219 160.949219 262.949219 161.816406 Z M 262.949219 161.816406 " fill-opacity="1" fill-rule="nonzero"/><path fill="#655f68" d="M 262.273438 159.386719 L 247.675781 163.75 C 234.0625 163.246094 227.867188 160.273438 230.546875 154.636719 L 244.078125 149.894531 C 245.601562 149.363281 247.289062 149.542969 248.660156 150.390625 L 260.710938 157.808594 C 261.359375 158.210938 261.894531 158.753906 262.273438 159.386719 Z M 262.273438 159.386719 " fill-opacity="1" fill-rule="nonzero"/><g clip-path="url(#d3dbbd273c)"><path fill="#655f68" d="M 236.035156 246.566406 L 233.027344 238.914062 C 232.542969 237.683594 231.773438 236.652344 230.824219 235.871094 L 214.34375 238.15625 L 214.339844 238.15625 C 207.578125 240.488281 199.007812 242.738281 189.394531 243.664062 L 189.390625 243.664062 L 171.332031 243.660156 L 171.328125 243.660156 C 161.714844 242.738281 153.144531 240.488281 146.378906 238.15625 L 129.898438 235.871094 L 129.894531 235.871094 C 128.945312 236.652344 128.179688 237.683594 127.695312 238.914062 L 124.6875 246.566406 C 123.988281 248.339844 124.777344 250.355469 126.496094 251.175781 C 129.078125 252.40625 133.261719 254.214844 138.839844 256.03125 L 140.972656 249.265625 C 148.703125 251.890625 159.042969 254.597656 170.796875 255.613281 L 170.796875 262.105469 C 173.863281 262.316406 177.054688 262.429688 180.359375 262.429688 C 183.667969 262.429688 186.859375 262.316406 189.925781 262.105469 L 189.925781 255.613281 C 201.679688 254.597656 212.015625 251.890625 219.75 249.265625 L 221.878906 256.03125 C 227.460938 254.214844 231.644531 252.40625 234.226562 251.175781 C 235.945312 250.355469 236.734375 248.339844 236.035156 246.566406 Z M 236.035156 246.566406 " fill-opacity="1" fill-rule="nonzero"/></g><g clip-path="url(#ad2bee0307)"><path fill="#655f68" d="M 104.511719 178.316406 L 104.511719 180.683594 C 104.511719 196.421875 112.949219 210.671875 126.601562 221.011719 L 147.976562 232.394531 C 154.953125 234.878906 162.515625 236.589844 170.460938 237.367188 L 190.261719 237.367188 C 198.207031 236.589844 205.769531 234.878906 212.746094 232.394531 L 234.121094 221.011719 C 247.773438 210.671875 256.210938 196.421875 256.210938 180.683594 L 256.210938 178.316406 Z M 104.511719 178.316406 " fill-opacity="1" fill-rule="nonzero"/></g><path fill="#f69552" d="M 234.121094 221.011719 C 234.386719 224.199219 234.222656 227.671875 233.117188 230.898438 C 232.457031 232.832031 231.683594 234.480469 230.824219 235.871094 C 227.421875 241.375 222.675781 242.757812 218.269531 241.25 C 216.636719 240.6875 215.292969 239.585938 214.34375 238.15625 C 213.273438 236.546875 212.695312 234.527344 212.746094 232.394531 C 212.800781 230.011719 213.640625 227.488281 215.449219 225.234375 C 220.328125 219.15625 229.242188 217.792969 231.382812 209.519531 C 231.382812 209.519531 233.59375 214.714844 234.121094 221.011719 Z M 234.121094 221.011719 " fill-opacity="1" fill-rule="nonzero"/><path fill="#f69552" d="M 190.261719 237.367188 C 190.265625 237.527344 190.269531 237.691406 190.269531 237.851562 C 190.269531 240.085938 189.972656 242.03125 189.390625 243.664062 C 187.988281 247.644531 184.910156 249.78125 180.359375 249.78125 C 175.808594 249.78125 172.730469 247.640625 171.332031 243.660156 C 170.75 242.027344 170.453125 240.082031 170.453125 237.851562 C 170.453125 237.691406 170.457031 237.527344 170.460938 237.367188 C 170.621094 229.84375 174.566406 222.027344 180.359375 216.796875 C 186.152344 222.027344 190.101562 229.84375 190.261719 237.367188 Z M 190.261719 237.367188 " fill-opacity="1" fill-rule="nonzero"/><path fill="#f69552" d="M 147.976562 232.394531 C 148.027344 234.53125 147.449219 236.550781 146.378906 238.15625 C 145.429688 239.585938 144.085938 240.691406 142.449219 241.25 C 138.046875 242.757812 133.300781 241.375 129.898438 235.871094 C 129.039062 234.480469 128.265625 232.832031 127.605469 230.898438 C 126.5 227.671875 126.332031 224.199219 126.601562 221.011719 C 127.128906 214.714844 129.339844 209.519531 129.339844 209.519531 C 131.476562 217.792969 140.394531 219.15625 145.273438 225.234375 C 147.082031 227.488281 147.921875 230.011719 147.976562 232.394531 Z M 147.976562 232.394531 " fill-opacity="1" fill-rule="nonzero"/><path fill="#524956" d="M 202.039062 148.042969 C 199.683594 160.238281 188.855469 163.5625 185.664062 159.199219 L 185.660156 159.199219 C 178.945312 155.941406 178.238281 151.289062 185.621094 146.808594 C 191.285156 146.96875 196.785156 147.390625 202.039062 148.042969 Z M 202.039062 148.042969 " fill-opacity="1" fill-rule="nonzero"/><g clip-path="url(#f1f8dc87de)"><path fill="#524956" d="M 104.511719 178.316406 C 104.511719 181.8125 105.875 185.171875 108.390625 188.3125 C 128.5625 185.199219 145.046875 176.683594 156.007812 160.082031 C 166.964844 162.195312 169.449219 156.800781 166.058594 147.292969 C 131.007812 150.078125 104.511719 162.910156 104.511719 178.316406 Z M 104.511719 178.316406 " fill-opacity="1" fill-rule="nonzero"/></g><path fill="#524956" d="M 255.050781 172.792969 C 253.695312 169.585938 251.171875 166.546875 247.675781 163.75 C 243.34375 160.285156 237.511719 157.195312 230.546875 154.636719 C 226.988281 153.328125 223.128906 152.152344 219.023438 151.140625 C 207.652344 156.277344 211.429688 163.488281 217.53125 167.726562 L 249.605469 191.222656 C 253.851562 187.28125 256.210938 182.914062 256.210938 178.316406 C 256.210938 176.433594 255.8125 174.585938 255.050781 172.792969 Z M 255.050781 172.792969 " fill-opacity="1" fill-rule="nonzero"/><path fill="#ffdbac" d="M 247.175781 182.574219 C 245.066406 180.167969 239.84375 180.226562 237.496094 178.175781 C 235.152344 176.125 234.527344 171.339844 230.019531 169.082031 C 225.507812 166.824219 217.53125 167.726562 217.53125 167.726562 L 194.449219 175.082031 L 156.007812 160.082031 C 156.027344 160.054688 146.339844 159.179688 139.554688 161.9375 C 132.765625 164.691406 129.601562 172.835938 125.488281 175.347656 C 121.371094 177.859375 115.464844 177.683594 112.273438 180.273438 C 109.082031 182.863281 108.390625 188.3125 108.390625 188.3125 C 118.433594 200.855469 146.863281 209.898438 180.359375 209.898438 C 211.207031 209.898438 237.757812 202.230469 249.605469 191.222656 C 249.605469 191.21875 249.28125 184.984375 247.175781 182.574219 Z M 247.175781 182.574219 " fill-opacity="1" fill-rule="nonzero"/><path fill="#ef9d26" d="M 181.121094 199.203125 C 181.121094 199.59375 181.015625 199.972656 180.800781 200.332031 C 180.589844 200.695312 180.285156 201.015625 179.890625 201.292969 C 179.496094 201.570312 179.042969 201.785156 178.527344 201.933594 C 178.015625 202.085938 177.476562 202.160156 176.921875 202.160156 C 176.363281 202.160156 175.828125 202.085938 175.3125 201.933594 C 174.796875 201.785156 174.34375 201.570312 173.949219 201.292969 C 173.558594 201.015625 173.253906 200.695312 173.039062 200.332031 C 172.828125 199.972656 172.71875 199.59375 172.71875 199.203125 C 172.71875 198.808594 172.828125 198.433594 173.039062 198.070312 C 173.253906 197.707031 173.558594 197.386719 173.949219 197.109375 C 174.34375 196.832031 174.796875 196.617188 175.3125 196.46875 C 175.828125 196.320312 176.363281 196.242188 176.921875 196.242188 C 177.476562 196.242188 178.015625 196.320312 178.527344 196.46875 C 179.042969 196.617188 179.496094 196.832031 179.890625 197.109375 C 180.285156 197.386719 180.589844 197.707031 180.800781 198.070312 C 181.015625 198.433594 181.121094 198.808594 181.121094 199.203125 Z M 181.121094 199.203125 " fill-opacity="1" fill-rule="nonzero"/><path fill="#ef9d26" d="M 134.980469 183.871094 C 134.980469 184.121094 134.953125 184.371094 134.890625 184.617188 C 134.828125 184.863281 134.738281 185.101562 134.617188 185.332031 C 134.496094 185.5625 134.347656 185.78125 134.171875 185.988281 C 133.996094 186.199219 133.792969 186.390625 133.570312 186.566406 C 133.347656 186.746094 133.105469 186.902344 132.839844 187.042969 C 132.578125 187.179688 132.300781 187.296875 132.007812 187.394531 C 131.714844 187.488281 131.414062 187.5625 131.101562 187.609375 C 130.792969 187.660156 130.480469 187.683594 130.164062 187.683594 C 129.847656 187.683594 129.535156 187.660156 129.222656 187.609375 C 128.914062 187.5625 128.613281 187.488281 128.320312 187.394531 C 128.027344 187.296875 127.75 187.179688 127.484375 187.042969 C 127.222656 186.902344 126.980469 186.746094 126.757812 186.566406 C 126.53125 186.390625 126.332031 186.199219 126.15625 185.988281 C 125.980469 185.78125 125.832031 185.5625 125.710938 185.332031 C 125.589844 185.101562 125.5 184.863281 125.4375 184.617188 C 125.375 184.371094 125.34375 184.121094 125.34375 183.871094 C 125.34375 183.621094 125.375 183.375 125.4375 183.128906 C 125.5 182.882812 125.589844 182.644531 125.710938 182.414062 C 125.832031 182.183594 125.980469 181.964844 126.15625 181.753906 C 126.332031 181.546875 126.53125 181.355469 126.757812 181.175781 C 126.980469 181 127.222656 180.84375 127.484375 180.703125 C 127.75 180.5625 128.027344 180.445312 128.320312 180.351562 C 128.613281 180.253906 128.914062 180.183594 129.222656 180.132812 C 129.535156 180.085938 129.847656 180.0625 130.164062 180.0625 C 130.480469 180.0625 130.792969 180.085938 131.101562 180.132812 C 131.414062 180.183594 131.714844 180.253906 132.007812 180.351562 C 132.300781 180.445312 132.578125 180.5625 132.839844 180.703125 C 133.105469 180.84375 133.347656 181 133.570312 181.175781 C 133.792969 181.355469 133.996094 181.546875 134.171875 181.753906 C 134.347656 181.964844 134.496094 182.183594 134.617188 182.414062 C 134.738281 182.644531 134.828125 182.882812 134.890625 183.128906 C 134.953125 183.375 134.980469 183.621094 134.980469 183.871094 Z M 134.980469 183.871094 " fill-opacity="1" fill-rule="nonzero"/><path fill="#ef9d26" d="M 147.980469 190.5625 C 150.566406 190.5625 152.664062 192.152344 152.664062 194.109375 C 152.664062 196.066406 150.566406 197.652344 147.980469 197.652344 C 145.394531 197.652344 143.296875 196.066406 143.296875 194.109375 C 143.296875 192.152344 145.394531 190.5625 147.980469 190.5625 Z M 147.980469 190.5625 " fill-opacity="1" fill-rule="nonzero"/><path fill="#ef9d26" d="M 226.898438 179.21875 C 229.410156 179.21875 231.441406 180.761719 231.441406 182.664062 C 231.441406 184.570312 229.410156 186.109375 226.898438 186.109375 C 224.394531 186.109375 222.363281 184.570312 222.363281 182.664062 C 222.363281 180.761719 224.394531 179.21875 226.898438 179.21875 Z M 226.898438 179.21875 " fill-opacity="1" fill-rule="nonzero"/><path fill="#ef9d26" d="M 217.597656 192.949219 C 219.257812 195.707031 217.464844 199.257812 214.261719 199.554688 L 205.507812 200.351562 L 213.109375 185.511719 Z M 217.597656 192.949219 " fill-opacity="1" fill-rule="nonzero"/><path fill="#f9b132" d="M 208.089844 179.5 C 211.679688 178.40625 214.820312 182.167969 213.109375 185.511719 L 205.507812 200.351562 C 204.304688 202.703125 201.277344 203.402344 199.167969 201.808594 L 187.351562 192.875 C 184.582031 190.777344 185.355469 186.414062 188.675781 185.40625 Z M 202.882812 192.621094 C 204.410156 191.417969 204.859375 189.441406 203.886719 188.207031 C 202.917969 186.972656 200.890625 186.945312 199.363281 188.148438 C 197.835938 189.351562 197.386719 191.332031 198.359375 192.566406 C 199.332031 193.800781 201.355469 193.828125 202.882812 192.621094 Z M 202.882812 192.621094 " fill-opacity="1" fill-rule="nonzero"/><path fill="#ef9d26" d="M 219.023438 151.140625 C 218.296875 148.164062 216.933594 145.746094 214.789062 144.707031 C 212.078125 143.394531 207.117188 145.261719 202.039062 148.042969 C 193.992188 152.464844 185.664062 159.199219 185.664062 159.199219 L 185.660156 159.199219 C 173.988281 167.726562 183.546875 171.554688 194.449219 175.082031 C 194.449219 175.082031 210.988281 174.21875 215.722656 170.226562 C 216.398438 169.652344 217.007812 168.792969 217.53125 167.726562 C 219.550781 163.625 220.324219 156.488281 219.023438 151.140625 Z M 219.023438 151.140625 " fill-opacity="1" fill-rule="nonzero"/><path fill="#f9b132" d="M 162.890625 179.605469 C 160.089844 179.058594 157.589844 180.519531 153.292969 179.558594 C 148.996094 178.597656 145.996094 174.648438 145.996094 174.648438 C 145.996094 174.648438 150.3125 167.898438 156.007812 160.082031 C 159.105469 155.828125 162.613281 151.261719 166.058594 147.292969 C 171.480469 141.058594 176.742188 136.308594 180 136.621094 C 184.046875 137.011719 185.285156 141.523438 185.621094 146.808594 C 185.890625 151.011719 185.582031 155.703125 185.660156 159.199219 C 185.707031 161.230469 185.878906 162.863281 186.371094 163.753906 C 188.773438 168.128906 196.003906 171.015625 194.449219 175.082031 C 192.894531 179.152344 184.902344 176.523438 181.96875 177.847656 C 179.03125 179.175781 176.632812 183.554688 172.277344 183.554688 C 167.925781 183.554688 165.691406 180.152344 162.890625 179.605469 Z M 162.890625 179.605469 " fill-opacity="1" fill-rule="nonzero"/><path fill="#ffc05a" d="M 206.082031 154.035156 C 207.671875 154.035156 208.964844 155.324219 208.964844 156.917969 C 208.964844 158.515625 207.671875 159.804688 206.082031 159.804688 C 204.488281 159.804688 203.195312 158.515625 203.195312 156.917969 C 203.195312 155.324219 204.488281 154.035156 206.082031 154.035156 Z M 206.082031 154.035156 " fill-opacity="1" fill-rule="nonzero"/><path fill="#ffc05a" d="M 203.886719 188.207031 C 204.859375 189.441406 204.410156 191.417969 202.882812 192.621094 C 201.355469 193.828125 199.332031 193.800781 198.359375 192.566406 C 197.386719 191.332031 197.835938 189.351562 199.363281 188.148438 C 200.890625 186.945312 202.917969 186.972656 203.886719 188.207031 Z M 203.886719 188.207031 " fill-opacity="1" fill-rule="nonzero"/><path fill="#ffc05a" d="M 175.585938 144.730469 C 177.425781 144.730469 178.914062 146.542969 178.914062 148.773438 C 178.914062 151.003906 177.425781 152.8125 175.585938 152.8125 C 173.746094 152.8125 172.253906 151.003906 172.253906 148.773438 C 172.253906 146.542969 173.746094 144.730469 175.585938 144.730469 Z M 175.585938 144.730469 " fill-opacity="1" fill-rule="nonzero"/><path fill="#ef9d26" d="M 228.746094 190.984375 C 228.125 190.585938 227.296875 190.773438 226.902344 191.394531 L 223.101562 197.371094 C 222.707031 197.996094 222.890625 198.824219 223.511719 199.21875 C 223.734375 199.363281 223.984375 199.429688 224.226562 199.429688 C 224.671875 199.429688 225.101562 199.210938 225.355469 198.808594 L 229.15625 192.832031 C 229.554688 192.210938 229.371094 191.382812 228.746094 190.984375 Z M 228.746094 190.984375 " fill-opacity="1" fill-rule="nonzero"/><path fill="#ef9d26" d="M 167.121094 190.949219 L 159.714844 186.535156 C 159.078125 186.15625 158.257812 186.363281 157.878906 187 C 157.503906 187.632812 157.710938 188.457031 158.34375 188.832031 L 165.753906 193.25 C 165.96875 193.378906 166.203125 193.4375 166.4375 193.4375 C 166.890625 193.4375 167.335938 193.207031 167.585938 192.785156 C 167.964844 192.148438 167.753906 191.328125 167.121094 190.949219 Z M 167.121094 190.949219 " fill-opacity="1" fill-rule="nonzero"/><path fill="#ef9d26" d="M 148.601562 183.175781 L 144.359375 180.945312 C 143.703125 180.605469 142.894531 180.855469 142.554688 181.511719 C 142.210938 182.164062 142.464844 182.976562 143.117188 183.316406 L 147.359375 185.546875 C 147.558594 185.652344 147.773438 185.699219 147.980469 185.699219 C 148.460938 185.699219 148.925781 185.4375 149.164062 184.984375 C 149.507812 184.328125 149.257812 183.519531 148.601562 183.175781 Z M 148.601562 183.175781 " fill-opacity="1" fill-rule="nonzero"/><path fill="#ef9d26" d="M 178.523438 157.523438 C 178.53125 156.785156 177.941406 156.179688 177.203125 156.167969 C 177.195312 156.167969 177.191406 156.167969 177.183594 156.167969 C 176.453125 156.167969 175.859375 156.757812 175.847656 157.488281 C 175.777344 162.957031 177.542969 167.304688 181.097656 170.410156 C 181.351562 170.632812 181.664062 170.742188 181.976562 170.742188 C 182.347656 170.742188 182.71875 170.585938 182.984375 170.285156 C 183.46875 169.726562 183.414062 168.882812 182.855469 168.394531 C 179.878906 165.792969 178.460938 162.234375 178.523438 157.523438 Z M 178.523438 157.523438 " fill-opacity="1" fill-rule="nonzero"/><path fill="#ef9d26" d="M 170.542969 159.035156 C 169.816406 158.917969 169.128906 159.414062 169.011719 160.144531 L 168.265625 164.777344 C 168.148438 165.507812 168.644531 166.195312 169.375 166.3125 C 169.445312 166.324219 169.515625 166.328125 169.585938 166.328125 C 170.230469 166.328125 170.800781 165.859375 170.90625 165.203125 L 171.652344 160.570312 C 171.769531 159.839844 171.273438 159.15625 170.542969 159.035156 Z M 170.542969 159.035156 " fill-opacity="1" fill-rule="nonzero"/><path fill="#ef9d26" d="M 163.578125 172.945312 L 162.597656 176.074219 C 162.375 176.78125 162.769531 177.53125 163.472656 177.753906 C 163.605469 177.792969 163.742188 177.816406 163.875 177.816406 C 164.441406 177.816406 164.96875 177.449219 165.148438 176.875 L 166.128906 173.746094 C 166.351562 173.039062 165.957031 172.289062 165.253906 172.066406 C 164.550781 171.847656 163.800781 172.238281 163.578125 172.945312 Z M 163.578125 172.945312 " fill-opacity="1" fill-rule="nonzero"/><path fill="#ef9d26" d="M 163.417969 163.78125 C 163.597656 163.0625 163.160156 162.335938 162.445312 162.15625 C 161.726562 161.972656 161.003906 162.410156 160.824219 163.128906 C 159.972656 166.527344 158.238281 169.445312 155.667969 171.804688 C 155.121094 172.304688 155.085938 173.152344 155.585938 173.699219 C 155.847656 173.984375 156.207031 174.132812 156.570312 174.132812 C 156.890625 174.132812 157.214844 174.015625 157.472656 173.78125 C 160.4375 171.058594 162.4375 167.695312 163.417969 163.78125 Z M 163.417969 163.78125 " fill-opacity="1" fill-rule="nonzero"/><path fill="#e58e1a" d="M 197.714844 159.167969 C 197.429688 158.484375 196.644531 158.164062 195.964844 158.449219 C 195.285156 158.730469 194.960938 159.515625 195.246094 160.199219 L 196.816406 163.96875 C 197.03125 164.484375 197.527344 164.792969 198.050781 164.792969 C 198.222656 164.792969 198.398438 164.757812 198.566406 164.6875 C 199.246094 164.40625 199.570312 163.621094 199.285156 162.9375 Z M 197.714844 159.167969 " fill-opacity="1" fill-rule="nonzero"/><path fill="#e58e1a" d="M 208.628906 162.917969 L 205.261719 165.523438 C 204.679688 165.976562 204.570312 166.816406 205.023438 167.402344 C 205.285156 167.742188 205.683594 167.921875 206.082031 167.921875 C 206.367188 167.921875 206.65625 167.828125 206.898438 167.640625 L 210.265625 165.035156 C 210.847656 164.582031 210.953125 163.742188 210.503906 163.15625 C 210.050781 162.574219 209.210938 162.464844 208.628906 162.917969 Z M 208.628906 162.917969 " fill-opacity="1" fill-rule="nonzero"/><path fill="#e4e4e4" d="M 130.675781 114.664062 C 130.488281 114.78125 126.105469 117.59375 125.613281 121.953125 C 125.402344 123.84375 126.078125 125.734375 126.792969 127.734375 C 127.652344 130.140625 128.542969 132.625 127.753906 135.042969 C 126.832031 137.867188 123.285156 140.34375 120.4375 142.335938 C 118.75 143.515625 117.289062 144.535156 116.339844 145.578125 C 113.570312 148.636719 113.101562 154.765625 113.085938 155.027344 C 113.03125 155.761719 113.585938 156.402344 114.320312 156.457031 C 114.355469 156.457031 114.386719 156.460938 114.417969 156.460938 C 115.113281 156.460938 115.699219 155.921875 115.75 155.21875 C 115.859375 153.707031 116.53125 149.351562 118.320312 147.378906 C 119.066406 146.554688 120.476562 145.570312 121.96875 144.53125 C 125.144531 142.3125 129.09375 139.550781 130.292969 135.875 C 131.367188 132.585938 130.273438 129.527344 129.308594 126.832031 C 128.703125 125.132812 128.125 123.527344 128.269531 122.25 C 128.613281 119.191406 132.042969 116.964844 132.101562 116.929688 C 132.722656 116.535156 132.910156 115.707031 132.515625 115.082031 C 132.125 114.457031 131.300781 114.269531 130.675781 114.664062 Z M 130.675781 114.664062 " fill-opacity="1" fill-rule="nonzero"/><path fill="#e4e4e4" d="M 142.21875 131.691406 C 141.539062 130.054688 140.898438 128.507812 141.179688 127.257812 C 141.769531 124.613281 144.929688 122.625 144.980469 122.59375 C 145.605469 122.210938 145.804688 121.386719 145.417969 120.757812 C 145.035156 120.125 144.210938 119.925781 143.582031 120.3125 C 143.410156 120.417969 139.414062 122.90625 138.570312 126.671875 C 138.105469 128.746094 138.9375 130.765625 139.746094 132.71875 C 140.425781 134.355469 141.066406 135.902344 140.894531 137.300781 C 140.542969 140.121094 137.316406 141.878906 137.285156 141.894531 C 136.632812 142.238281 136.382812 143.046875 136.726562 143.703125 C 136.964844 144.15625 137.429688 144.417969 137.910156 144.417969 C 138.121094 144.417969 138.332031 144.367188 138.53125 144.261719 C 138.714844 144.167969 143.023438 141.851562 143.546875 137.632812 C 143.804688 135.53125 142.960938 133.492188 142.21875 131.691406 Z M 142.21875 131.691406 " fill-opacity="1" fill-rule="nonzero"/><path fill="#e4e4e4" d="M 213.433594 116.5625 C 213.261719 116.667969 209.265625 119.152344 208.421875 122.921875 C 207.957031 125 208.792969 127.015625 209.601562 128.964844 C 210.277344 130.605469 210.917969 132.152344 210.746094 133.554688 C 210.394531 136.371094 207.167969 138.128906 207.140625 138.144531 C 206.484375 138.488281 206.234375 139.296875 206.578125 139.953125 C 206.816406 140.40625 207.28125 140.667969 207.761719 140.667969 C 207.972656 140.667969 208.183594 140.617188 208.382812 140.511719 C 208.566406 140.414062 212.875 138.101562 213.398438 133.882812 C 213.65625 131.78125 212.8125 129.742188 212.070312 127.941406 C 211.390625 126.304688 210.75 124.757812 211.03125 123.507812 C 211.621094 120.867188 214.765625 118.886719 214.828125 118.84375 C 215.457031 118.460938 215.65625 117.636719 215.269531 117.003906 C 214.886719 116.375 214.0625 116.175781 213.433594 116.5625 Z M 213.433594 116.5625 " fill-opacity="1" fill-rule="nonzero"/><path fill="#e4e4e4" d="M 235.148438 139.058594 C 235.074219 136.234375 233.941406 133.613281 232.84375 131.082031 C 231.796875 128.652344 230.804688 126.359375 230.902344 124.21875 C 231.09375 119.976562 234.230469 116.574219 234.261719 116.539062 C 234.765625 116 234.738281 115.15625 234.203125 114.648438 C 233.664062 114.140625 232.820312 114.167969 232.3125 114.703125 C 232.15625 114.871094 228.472656 118.84375 228.230469 124.09375 C 228.105469 126.855469 229.265625 129.546875 230.390625 132.144531 C 231.386719 134.445312 232.414062 136.824219 232.472656 139.128906 C 232.59375 143.660156 229.335938 146.742188 229.304688 146.769531 C 228.761719 147.269531 228.722656 148.117188 229.222656 148.660156 C 229.484375 148.949219 229.847656 149.09375 230.207031 149.09375 C 230.53125 149.09375 230.855469 148.980469 231.109375 148.742188 C 231.28125 148.585938 235.296875 144.835938 235.148438 139.058594 Z M 235.148438 139.058594 " fill-opacity="1" fill-rule="nonzero"/><g clip-path="url(#5273e4a2a5)"><path fill="#e4e4e4" d="M 162.875 139.191406 C 163.105469 139.191406 163.332031 139.132812 163.542969 139.011719 C 163.726562 138.90625 168.003906 136.382812 168.515625 131.84375 C 168.765625 129.601562 167.96875 127.488281 167.199219 125.441406 C 166.507812 123.609375 165.855469 121.878906 166.148438 120.4375 C 166.761719 117.453125 169.960938 115.25 169.992188 115.226562 C 170.605469 114.8125 170.765625 113.984375 170.355469 113.371094 C 169.941406 112.757812 169.109375 112.59375 168.5 113.007812 C 168.332031 113.121094 164.363281 115.832031 163.53125 119.898438 C 163.082031 122.101562 163.902344 124.28125 164.699219 126.386719 C 165.386719 128.214844 166.039062 129.945312 165.859375 131.546875 C 165.5 134.726562 162.234375 136.675781 162.207031 136.695312 C 161.566406 137.0625 161.347656 137.882812 161.71875 138.523438 C 161.964844 138.949219 162.414062 139.191406 162.875 139.191406 Z M 162.875 139.191406 " fill-opacity="1" fill-rule="nonzero"/></g><g clip-path="url(#7a2812a6ae)"><path fill="#e4e4e4" d="M 199.820312 125.789062 C 198.414062 124.375 197.089844 123.039062 197.003906 121.660156 C 196.84375 119.128906 199.230469 116.074219 200.164062 115.109375 C 200.679688 114.578125 200.667969 113.730469 200.140625 113.214844 C 199.609375 112.699219 198.765625 112.710938 198.25 113.238281 C 198.078125 113.414062 194.070312 117.589844 194.332031 121.828125 C 194.484375 124.214844 196.234375 125.972656 197.925781 127.675781 C 199.332031 129.089844 200.660156 130.429688 200.929688 131.929688 C 201.484375 135.042969 197.988281 138.308594 197.953125 138.339844 C 197.410156 138.835938 197.371094 139.683594 197.871094 140.230469 C 198.132812 140.519531 198.492188 140.664062 198.855469 140.664062 C 199.179688 140.664062 199.5 140.550781 199.757812 140.316406 C 199.945312 140.144531 204.375 136.03125 203.558594 131.457031 C 203.144531 129.132812 201.378906 127.355469 199.820312 125.789062 Z M 199.820312 125.789062 " fill-opacity="1" fill-rule="nonzero"/></g></svg>