<svg xmlns="http://www.w3.org/2000/svg" xmlns:xlink="http://www.w3.org/1999/xlink" width="500" zoomAndPan="magnify" viewBox="0 0 375 374.999991" height="500" preserveAspectRatio="xMidYMid meet" version="1.0"><defs><clipPath id="99245e01bf"><path d="M 54 45 L 311 45 L 311 337.863281 L 54 337.863281 Z M 54 45 " clip-rule="nonzero"/></clipPath><clipPath id="0ad152a4d2"><path d="M 123.371094 67.449219 L 276.371094 67.449219 L 276.371094 220.449219 L 123.371094 220.449219 Z M 123.371094 67.449219 " clip-rule="nonzero"/></clipPath></defs><g clip-path="url(#99245e01bf)"><path fill="#00bf63" d="M 272.148438 337.285156 C 253.992188 291.917969 260.960938 257.863281 300.699219 194.125 C 321.296875 161.085938 310.617188 82.886719 247.066406 57.898438 C 199.921875 39.359375 142.246094 40.765625 102.070312 71.765625 C 86.742188 83.589844 81.875 102.09375 81.957031 121.292969 C 81.972656 124.4375 81.488281 127.566406 80.558594 130.574219 C 78.332031 137.796875 76.441406 145.113281 79.023438 151.296875 C 82.316406 159.171875 83.902344 165.28125 79.023438 172.304688 L 55.777344 207.683594 C 53.703125 210.835938 55.660156 215.050781 59.398438 215.539062 C 69.902344 216.90625 76.089844 222.054688 69.847656 236.339844 C 68.542969 239.320312 68.761719 241.914062 71.683594 243.476562 C 74.542969 245.003906 74.613281 246.65625 73.316406 249.796875 C 72.253906 252.367188 73.582031 254.921875 75.355469 257.140625 C 79.84375 263.332031 80.660156 270.355469 78.820312 279.570312 C 76.636719 290.523438 80.027344 299.285156 88.8125 298.742188 C 104.460938 297.773438 117.550781 293.859375 130.007812 299.351562 C 143.441406 305.277344 149.195312 318.253906 147.75 337.488281 Z M 272.148438 337.285156 " fill-opacity="1" fill-rule="nonzero"/></g><g clip-path="url(#0ad152a4d2)"><path fill="#ffffff" d="M 199.832031 67.425781 C 242.050781 67.425781 276.269531 101.648438 276.269531 143.859375 C 276.269531 176.078125 256.335938 203.636719 228.125 214.886719 L 227.007812 190.800781 L 227.007812 190.753906 C 227.070312 185.992188 229.082031 182.238281 233.546875 180.351562 L 234.117188 180.121094 L 234.148438 180.109375 L 234.183594 180.09375 L 234.242188 180.074219 C 237.527344 178.746094 240.203125 176.953125 242.027344 173.851562 C 244.304688 169.988281 244.742188 164.839844 244.742188 160.457031 C 244.742188 152.035156 242.261719 142.089844 237.980469 134.808594 C 234.941406 129.632812 230.148438 124.398438 223.671875 124.398438 C 217.199219 124.398438 212.402344 129.632812 209.363281 134.808594 C 205.085938 142.089844 202.601562 152.035156 202.601562 160.457031 C 202.601562 164.84375 203.042969 169.992188 205.320312 173.851562 C 207.164062 176.972656 209.871094 178.769531 213.171875 180.101562 C 213.261719 180.136719 213.355469 180.175781 213.445312 180.214844 L 213.472656 180.214844 L 213.757812 180.335938 C 218.238281 182.21875 220.273438 185.929688 220.335938 190.753906 L 220.335938 190.800781 L 219.082031 217.855469 C 212.929688 219.453125 206.480469 220.300781 199.832031 220.300781 C 192.949219 220.300781 186.28125 219.386719 179.933594 217.679688 L 178.761719 192.351562 L 178.761719 192.296875 C 178.824219 187.414062 180.90625 183.566406 185.476562 181.628906 L 186.0625 181.402344 L 186.101562 181.386719 L 186.167969 181.359375 C 189.394531 180.054688 192.023438 178.300781 193.816406 175.253906 C 196.0625 171.441406 196.492188 166.328125 196.492188 162.003906 C 196.492188 161.582031 196.476562 161.164062 196.449219 160.746094 C 196.433594 160.503906 196.414062 160.261719 196.382812 160.027344 L 196.34375 159.675781 L 196.410156 159.433594 L 193.628906 127.105469 L 190.722656 127.109375 L 190.472656 161.277344 L 185.632812 161.757812 L 182.753906 123.136719 L 179.601562 123.328125 L 178.976562 162.234375 L 177.265625 162.304688 C 176.90625 162.320312 176.546875 162.324219 176.195312 162.324219 C 175.835938 162.324219 175.472656 162.320312 175.113281 162.304688 L 173.410156 162.234375 L 172.535156 123.328125 L 169.382812 123.144531 L 166.757812 161.761719 L 161.910156 161.28125 L 161.664062 127.109375 L 158.742188 127.109375 L 154.984375 159.449219 L 155.046875 159.679688 L 155.007812 160.023438 C 154.980469 160.261719 154.960938 160.503906 154.945312 160.746094 C 154.917969 161.164062 154.902344 161.585938 154.902344 162.003906 C 154.902344 166.328125 155.332031 171.441406 157.582031 175.253906 C 159.386719 178.324219 162.046875 180.078125 165.292969 181.386719 C 165.371094 181.414062 165.445312 181.445312 165.519531 181.476562 L 165.542969 181.476562 L 165.882812 181.621094 C 170.460938 183.550781 172.566406 187.359375 172.632812 192.296875 L 172.632812 192.351562 L 171.589844 214.921875 C 143.34375 203.695312 123.378906 176.113281 123.378906 143.867188 C 123.398438 101.644531 157.617188 67.425781 199.832031 67.425781 " fill-opacity="1" fill-rule="evenodd"/></g></svg>